<mxfile host="app.diagrams.net" agent="Mozilla/5.0 (Windows NT 10.0; Win64; x64) AppleWebKit/537.36 (KHTML, like Gecko) Chrome/130.0.0.0 Safari/537.36" version="24.8.1">
  <diagram name="第 1 页" id="iiv3ZtqF_j4tjwjfygAj">
    <mxGraphModel dx="2102" dy="1099" grid="1" gridSize="10" guides="1" tooltips="1" connect="1" arrows="1" fold="1" page="1" pageScale="1" pageWidth="827" pageHeight="1169" math="0" shadow="0">
      <root>
        <mxCell id="0" />
        <mxCell id="1" parent="0" />
        <mxCell id="p-p-h4AZu70DpV3AuvvQ-1" value="STUN:Cone" style="text;strokeColor=none;fillColor=none;html=1;fontSize=24;fontStyle=1;verticalAlign=middle;align=center;textShadow=1;" parent="1" vertex="1">
          <mxGeometry x="614" width="180" height="40" as="geometry" />
        </mxCell>
        <mxCell id="p-p-h4AZu70DpV3AuvvQ-7" value="" style="endArrow=classic;html=1;rounded=0;entryX=0.138;entryY=-0.008;entryDx=0;entryDy=0;entryPerimeter=0;exitX=0.142;exitY=1.025;exitDx=0;exitDy=0;exitPerimeter=0;strokeWidth=2;labelBorderColor=none;textShadow=1;" parent="1" edge="1">
          <mxGeometry width="50" height="50" relative="1" as="geometry">
            <mxPoint x="9.439999999999891" y="137" as="sourcePoint" />
            <mxPoint x="8.000000000000064" y="205.68000000000006" as="targetPoint" />
          </mxGeometry>
        </mxCell>
        <mxCell id="p-p-h4AZu70DpV3AuvvQ-8" value="UDP Listen&#39;s {&lt;font color=&quot;#00cc00&quot; style=&quot;font-size: 15px;&quot;&gt;Port&lt;/font&gt;}, Random {&lt;font color=&quot;#0000ff&quot; style=&quot;font-size: 15px;&quot;&gt;SN&lt;/font&gt;},&amp;nbsp;&lt;span style=&quot;background-color: initial;&quot;&gt;{&lt;font color=&quot;#00cc00&quot;&gt;Key&lt;/font&gt;}&lt;/span&gt;" style="text;html=1;fontSize=15;fontStyle=0;verticalAlign=middle;align=center;fontColor=#000000;textShadow=0;labelBorderColor=none;whiteSpace=wrap;fontFamily=Comic Sans MS;" parent="1" vertex="1">
          <mxGeometry x="9" y="156" width="292" height="30" as="geometry" />
        </mxCell>
        <mxCell id="p-p-h4AZu70DpV3AuvvQ-9" value="" style="endArrow=classic;html=1;rounded=0;entryX=0.138;entryY=-0.008;entryDx=0;entryDy=0;entryPerimeter=0;exitX=0.142;exitY=1.025;exitDx=0;exitDy=0;exitPerimeter=0;strokeWidth=2;textShadow=1;" parent="1" edge="1">
          <mxGeometry width="50" height="50" relative="1" as="geometry">
            <mxPoint x="353.00000000000006" y="205.34000000000006" as="sourcePoint" />
            <mxPoint x="354.4399999999999" y="136.66" as="targetPoint" />
          </mxGeometry>
        </mxCell>
        <mxCell id="p-p-h4AZu70DpV3AuvvQ-11" value="&lt;span style=&quot;color: rgb(0, 0, 0); font-size: 15px; font-variant-ligatures: normal; font-variant-caps: normal; font-weight: 400; letter-spacing: normal; orphans: 2; text-indent: 0px; text-transform: none; widows: 2; word-spacing: 0px; -webkit-text-stroke-width: 0px; white-space: nowrap; text-decoration-thickness: initial; text-decoration-style: initial; text-decoration-color: initial; float: none; display: inline !important;&quot;&gt;Dial {&lt;/span&gt;&lt;span style=&quot;font-size: 15px; font-variant-ligatures: normal; font-variant-caps: normal; font-weight: 400; letter-spacing: normal; orphans: 2; text-indent: 0px; text-transform: none; widows: 2; word-spacing: 0px; -webkit-text-stroke-width: 0px; white-space: nowrap; text-decoration-thickness: initial; text-decoration-style: initial; text-decoration-color: initial; float: none; display: inline !important;&quot;&gt;&lt;font color=&quot;#00cc00&quot; style=&quot;font-size: 15px;&quot;&gt;IP:Port&lt;/font&gt;&lt;/span&gt;&lt;span style=&quot;color: rgb(0, 0, 0); font-size: 15px; font-variant-ligatures: normal; font-variant-caps: normal; font-weight: 400; letter-spacing: normal; orphans: 2; text-indent: 0px; text-transform: none; widows: 2; word-spacing: 0px; -webkit-text-stroke-width: 0px; white-space: nowrap; text-decoration-thickness: initial; text-decoration-style: initial; text-decoration-color: initial; float: none; display: inline !important;&quot;&gt;}, &lt;/span&gt;&lt;span style=&quot;font-size: 15px; font-variant-ligatures: normal; font-variant-caps: normal; font-weight: 400; letter-spacing: normal; orphans: 2; text-indent: 0px; text-transform: none; widows: 2; word-spacing: 0px; -webkit-text-stroke-width: 0px; white-space: nowrap; text-decoration-thickness: initial; text-decoration-style: initial; text-decoration-color: initial; float: none; display: inline !important;&quot;&gt;&lt;font color=&quot;#0000ff&quot; style=&quot;&quot;&gt;&lt;span&gt;SN&lt;/span&gt;&lt;/font&gt;&lt;/span&gt;" style="text;whiteSpace=wrap;html=1;fontSize=15;align=center;labelBorderColor=none;textShadow=0;labelBackgroundColor=none;fontStyle=0;fontFamily=Comic Sans MS;" parent="1" vertex="1">
          <mxGeometry x="355" y="157" width="135" height="30" as="geometry" />
        </mxCell>
        <mxCell id="p-p-h4AZu70DpV3AuvvQ-15" value="" style="endArrow=classic;html=1;rounded=0;entryX=0.138;entryY=-0.008;entryDx=0;entryDy=0;entryPerimeter=0;exitX=0.142;exitY=1.025;exitDx=0;exitDy=0;exitPerimeter=0;strokeWidth=2;textShadow=0;" parent="1" edge="1">
          <mxGeometry width="50" height="50" relative="1" as="geometry">
            <mxPoint x="8.439999999999891" y="417.32" as="sourcePoint" />
            <mxPoint x="7.000000000000064" y="486.00000000000006" as="targetPoint" />
          </mxGeometry>
        </mxCell>
        <mxCell id="p-p-h4AZu70DpV3AuvvQ-16" value="&lt;span style=&quot;color: rgb(0, 0, 0); font-size: 15px; font-style: normal; font-variant-ligatures: normal; font-variant-caps: normal; font-weight: 400; letter-spacing: normal; orphans: 2; text-indent: 0px; text-transform: none; widows: 2; word-spacing: 0px; -webkit-text-stroke-width: 0px; white-space: nowrap; text-decoration-thickness: initial; text-decoration-style: initial; text-decoration-color: initial; float: none; display: inline !important;&quot;&gt;Client&#39;s UDP {&lt;/span&gt;&lt;span style=&quot;font-size: 15px; font-style: normal; font-variant-ligatures: normal; font-variant-caps: normal; font-weight: 400; letter-spacing: normal; orphans: 2; text-indent: 0px; text-transform: none; widows: 2; word-spacing: 0px; -webkit-text-stroke-width: 0px; white-space: nowrap; text-decoration-thickness: initial; text-decoration-style: initial; text-decoration-color: initial; float: none; display: inline !important;&quot;&gt;&lt;font color=&quot;#ff0000&quot; style=&quot;font-size: 15px;&quot;&gt;IP:Port&lt;/font&gt;&lt;/span&gt;&lt;span style=&quot;color: rgb(0, 0, 0); font-size: 15px; font-style: normal; font-variant-ligatures: normal; font-variant-caps: normal; font-weight: 400; letter-spacing: normal; orphans: 2; text-indent: 0px; text-transform: none; widows: 2; word-spacing: 0px; -webkit-text-stroke-width: 0px; white-space: nowrap; text-decoration-thickness: initial; text-decoration-style: initial; text-decoration-color: initial; float: none; display: inline !important;&quot;&gt;}&lt;/span&gt;" style="text;whiteSpace=wrap;html=1;fontSize=15;align=center;textShadow=0;labelBackgroundColor=none;fontFamily=Comic Sans MS;" parent="1" vertex="1">
          <mxGeometry x="11" y="435" width="159" height="30" as="geometry" />
        </mxCell>
        <mxCell id="p-p-h4AZu70DpV3AuvvQ-17" value="&lt;font style=&quot;font-size: 15px;&quot;&gt;SN&lt;/font&gt;" style="text;html=1;fontSize=15;fontStyle=0;verticalAlign=middle;align=center;fontColor=#0000FF;textShadow=0;fontFamily=Comic Sans MS;" parent="1" vertex="1">
          <mxGeometry x="437" y="435" width="30" height="30" as="geometry" />
        </mxCell>
        <mxCell id="p-p-h4AZu70DpV3AuvvQ-18" value="" style="endArrow=classic;html=1;rounded=0;entryX=0.138;entryY=-0.008;entryDx=0;entryDy=0;entryPerimeter=0;exitX=0.142;exitY=1.025;exitDx=0;exitDy=0;exitPerimeter=0;strokeWidth=2;" parent="1" edge="1">
          <mxGeometry width="50" height="50" relative="1" as="geometry">
            <mxPoint x="434.4399999999999" y="417.65999999999997" as="sourcePoint" />
            <mxPoint x="433.00000000000006" y="486.34000000000003" as="targetPoint" />
          </mxGeometry>
        </mxCell>
        <mxCell id="p-p-h4AZu70DpV3AuvvQ-19" value="&lt;span style=&quot;font-size: 20px; text-wrap: nowrap;&quot;&gt;Server: TCP {&lt;font color=&quot;#00cc00&quot;&gt;IP&lt;/font&gt;}&lt;/span&gt;&lt;span style=&quot;font-size: 20px; white-space: pre;&quot;&gt;&#x9;&lt;/span&gt;&lt;span style=&quot;font-size: 20px; white-space: pre;&quot;&gt;&#x9;&lt;span style=&quot;white-space: pre;&quot;&gt;&#x9;&#x9;&#x9;&lt;/span&gt; &lt;/span&gt;&amp;nbsp; &amp;nbsp;&lt;span style=&quot;font-size: 20px; text-wrap: nowrap;&quot;&gt;UDP Listen {&lt;/span&gt;&lt;font style=&quot;font-size: 20px; text-wrap: nowrap;&quot; color=&quot;#00cc00&quot;&gt;Port&lt;/font&gt;&lt;span style=&quot;font-size: 20px; text-wrap: nowrap;&quot;&gt;}&lt;/span&gt;" style="rounded=1;whiteSpace=wrap;html=1;align=left;labelBorderColor=none;textShadow=1;spacingTop=0;spacingLeft=14;labelBackgroundColor=none;fillColor=#f5f5f5;fontColor=#333333;strokeColor=#666666;fontFamily=Georgia;" parent="1" vertex="1">
          <mxGeometry x="-60" y="70" width="630" height="60" as="geometry" />
        </mxCell>
        <mxCell id="p-p-h4AZu70DpV3AuvvQ-20" value="&lt;span style=&quot;font-size: 20px; text-wrap: nowrap;&quot;&gt;Client: TCP&amp;nbsp;&amp;nbsp;&lt;/span&gt;&lt;span style=&quot;font-size: 20px; white-space: pre;&quot;&gt;&#x9;&lt;/span&gt;&lt;span style=&quot;font-size: 20px; white-space: pre;&quot;&gt;&#x9;&lt;span style=&quot;white-space: pre;&quot;&gt;&#x9;&#x9;&#x9;&#x9;&lt;/span&gt; &lt;/span&gt;&lt;span style=&quot;font-size: 20px; text-wrap: nowrap;&quot;&gt;&amp;nbsp; UDP {&lt;/span&gt;&lt;font color=&quot;#ff0000&quot; style=&quot;font-size: 20px; text-wrap: nowrap;&quot;&gt;IP:Port&lt;/font&gt;&lt;span style=&quot;font-size: 20px; text-wrap: nowrap;&quot;&gt;}&lt;/span&gt;" style="rounded=1;whiteSpace=wrap;html=1;align=left;labelBorderColor=none;textShadow=1;spacingTop=0;spacingLeft=14;labelBackgroundColor=none;fillColor=#f5f5f5;fontColor=#333333;strokeColor=#666666;fontFamily=Georgia;" parent="1" vertex="1">
          <mxGeometry x="-60" y="210" width="630" height="60" as="geometry" />
        </mxCell>
        <mxCell id="p-p-h4AZu70DpV3AuvvQ-22" value="&lt;span style=&quot;font-size: 20px; text-wrap: nowrap;&quot;&gt;Server:&amp;nbsp;&amp;nbsp;&lt;/span&gt;&lt;span style=&quot;font-size: 20px; text-wrap: nowrap;&quot;&gt;TCP&amp;nbsp;&lt;span style=&quot;white-space: pre;&quot;&gt;&#x9;&lt;/span&gt;&lt;span style=&quot;white-space: pre;&quot;&gt;&#x9;&lt;/span&gt;&lt;span style=&quot;white-space: pre;&quot;&gt;&#x9;&lt;/span&gt;&lt;span style=&quot;white-space: pre;&quot;&gt;&#x9;&lt;/span&gt;&lt;span style=&quot;white-space: pre;&quot;&gt;&#x9;&lt;/span&gt;&lt;span style=&quot;white-space: pre;&quot;&gt;&#x9;&lt;span style=&quot;white-space: pre;&quot;&gt;&#x9;&lt;span style=&quot;white-space: pre;&quot;&gt;&#x9;&lt;/span&gt;&lt;/span&gt;&lt;/span&gt;&lt;/span&gt;&lt;span style=&quot;font-size: 20px; text-wrap: nowrap;&quot;&gt;UDP Listen&lt;/span&gt;&lt;span style=&quot;font-size: 20px; text-wrap: nowrap;&quot;&gt;&lt;span style=&quot;white-space: pre;&quot;&gt;&#x9;&lt;/span&gt;&lt;span style=&quot;white-space: pre;&quot;&gt;&#x9;&lt;/span&gt;&lt;span style=&quot;white-space: pre;&quot;&gt;&#x9;&lt;/span&gt;&lt;span style=&quot;white-space: pre;&quot;&gt;&#x9;&lt;/span&gt;&lt;span style=&quot;white-space: pre;&quot;&gt;&#x9;&lt;span style=&quot;white-space: pre;&quot;&gt;&#x9;&lt;/span&gt;&lt;/span&gt;UDP New Port&lt;span style=&quot;white-space: pre;&quot;&gt;&#x9;&lt;/span&gt;&lt;span style=&quot;white-space: pre;&quot;&gt;&#x9;&lt;/span&gt;&lt;span style=&quot;white-space: pre;&quot;&gt;&#x9;&lt;/span&gt;&lt;span style=&quot;white-space: pre;&quot;&gt;&#x9;&lt;/span&gt;&lt;span style=&quot;white-space: pre;&quot;&gt;&#x9;&lt;/span&gt;&amp;nbsp; UDP New Host&lt;/span&gt;" style="rounded=1;whiteSpace=wrap;html=1;align=left;labelBorderColor=none;textShadow=1;spacingTop=0;spacingLeft=14;labelBackgroundColor=none;fillColor=#f5f5f5;fontColor=#333333;strokeColor=#666666;fontFamily=Georgia;" parent="1" vertex="1">
          <mxGeometry x="-60" y="351" width="1510" height="60" as="geometry" />
        </mxCell>
        <mxCell id="p-p-h4AZu70DpV3AuvvQ-24" value="&lt;span style=&quot;font-size: 20px; text-wrap: nowrap;&quot;&gt;Client:&amp;nbsp; &amp;nbsp;&lt;/span&gt;&lt;span style=&quot;font-size: 20px; text-wrap: nowrap;&quot;&gt;TCP&lt;/span&gt;&lt;span style=&quot;font-size: 20px; white-space: pre;&quot;&gt;&#x9;&lt;span style=&quot;white-space: pre;&quot;&gt;&#x9;&lt;/span&gt;&lt;span style=&quot;white-space: pre;&quot;&gt;&#x9;&lt;/span&gt;&lt;span style=&quot;white-space: pre;&quot;&gt;&#x9;&lt;/span&gt;&lt;span style=&quot;white-space: pre;&quot;&gt;&#x9;&lt;/span&gt;&lt;span style=&quot;white-space: pre;&quot;&gt;&#x9;&lt;span style=&quot;white-space: pre;&quot;&gt;&#x9;&lt;span style=&quot;white-space: pre;&quot;&gt;&#x9;&lt;/span&gt;&lt;span style=&quot;white-space: pre;&quot;&gt;&#x9;&lt;/span&gt;&lt;/span&gt;&lt;/span&gt;&lt;/span&gt;&lt;span style=&quot;font-size: 20px; text-wrap: nowrap;&quot;&gt;UDP&amp;nbsp;&lt;/span&gt;&lt;span style=&quot;text-wrap: nowrap; font-size: 20px;&quot;&gt;{&lt;/span&gt;&lt;font color=&quot;#ff0000&quot; style=&quot;text-wrap: nowrap; font-size: 20px;&quot;&gt;IP:Port&lt;/font&gt;&lt;span style=&quot;text-wrap: nowrap; font-size: 20px;&quot;&gt;}&lt;/span&gt;&lt;span style=&quot;font-size: 20px; text-wrap: nowrap;&quot;&gt;&lt;span style=&quot;white-space: pre;&quot;&gt;&#x9;&lt;/span&gt;&lt;span style=&quot;white-space: pre;&quot;&gt;&#x9;&lt;/span&gt;&lt;span style=&quot;white-space: pre;&quot;&gt;&#x9;&lt;/span&gt;&lt;span style=&quot;white-space: pre;&quot;&gt;&#x9;&lt;/span&gt;&lt;span style=&quot;white-space: pre;&quot;&gt;&#x9;&lt;/span&gt;&amp;nbsp; &amp;nbsp;UDP&amp;nbsp;&lt;/span&gt;&lt;span style=&quot;text-wrap: nowrap; font-size: 20px;&quot;&gt;{&lt;/span&gt;&lt;font color=&quot;#ff0000&quot; style=&quot;text-wrap: nowrap; font-size: 20px;&quot;&gt;IP:Port&lt;/font&gt;&lt;span style=&quot;text-wrap: nowrap; font-size: 20px;&quot;&gt;}&lt;span style=&quot;white-space: pre;&quot;&gt;&#x9;&lt;/span&gt;&lt;span style=&quot;white-space: pre;&quot;&gt;&#x9;&lt;/span&gt;&lt;span style=&quot;white-space: pre;&quot;&gt;&#x9;&lt;/span&gt;&lt;span style=&quot;white-space: pre;&quot;&gt;&#x9;&lt;/span&gt;&amp;nbsp; &amp;nbsp;&amp;nbsp;&lt;span style=&quot;white-space: pre;&quot;&gt;&#x9;&lt;/span&gt;&amp;nbsp; &amp;nbsp; &amp;nbsp;&lt;/span&gt;&lt;span style=&quot;text-wrap: nowrap; font-size: 20px;&quot;&gt;UDP&amp;nbsp;&lt;/span&gt;&lt;span style=&quot;text-wrap: nowrap; font-size: 20px;&quot;&gt;{&lt;/span&gt;&lt;font color=&quot;#ff0000&quot; style=&quot;text-wrap: nowrap; font-size: 20px;&quot;&gt;IP:Port&lt;/font&gt;&lt;span style=&quot;text-wrap: nowrap; font-size: 20px;&quot;&gt;}&lt;/span&gt;" style="rounded=1;whiteSpace=wrap;html=1;align=left;labelBorderColor=none;textShadow=1;spacingTop=0;spacingLeft=14;labelBackgroundColor=none;fillColor=#f5f5f5;fontColor=#333333;strokeColor=#666666;fontFamily=Georgia;" parent="1" vertex="1">
          <mxGeometry x="-60" y="491" width="1510" height="60" as="geometry" />
        </mxCell>
        <mxCell id="p-p-h4AZu70DpV3AuvvQ-25" value="" style="endArrow=classic;html=1;rounded=0;entryX=0.138;entryY=-0.008;entryDx=0;entryDy=0;entryPerimeter=0;exitX=0.142;exitY=1.025;exitDx=0;exitDy=0;exitPerimeter=0;strokeWidth=2;" parent="1" edge="1">
          <mxGeometry width="50" height="50" relative="1" as="geometry">
            <mxPoint x="761.4399999999999" y="417.32" as="sourcePoint" />
            <mxPoint x="760.0000000000001" y="486.00000000000006" as="targetPoint" />
          </mxGeometry>
        </mxCell>
        <mxCell id="p-p-h4AZu70DpV3AuvvQ-26" value="&lt;font style=&quot;font-size: 15px;&quot;&gt;SN&lt;/font&gt;" style="text;html=1;fontSize=15;fontStyle=0;verticalAlign=middle;align=center;fontColor=#0000FF;textShadow=0;fontFamily=Comic Sans MS;" parent="1" vertex="1">
          <mxGeometry x="764" y="437" width="30" height="30" as="geometry" />
        </mxCell>
        <mxCell id="p-p-h4AZu70DpV3AuvvQ-27" value="" style="endArrow=classic;html=1;rounded=0;entryX=0.138;entryY=-0.008;entryDx=0;entryDy=0;entryPerimeter=0;exitX=0.142;exitY=1.025;exitDx=0;exitDy=0;exitPerimeter=0;strokeWidth=2;" parent="1" edge="1">
          <mxGeometry width="50" height="50" relative="1" as="geometry">
            <mxPoint x="1086.44" y="419.32" as="sourcePoint" />
            <mxPoint x="1085" y="488.00000000000006" as="targetPoint" />
          </mxGeometry>
        </mxCell>
        <mxCell id="p-p-h4AZu70DpV3AuvvQ-28" value="&lt;font style=&quot;font-size: 15px;&quot;&gt;SN&lt;/font&gt;" style="text;html=1;fontSize=15;fontStyle=0;verticalAlign=middle;align=center;fontColor=#0000FF;textShadow=0;fontFamily=Comic Sans MS;" parent="1" vertex="1">
          <mxGeometry x="1089" y="439" width="30" height="30" as="geometry" />
        </mxCell>
        <mxCell id="p-p-h4AZu70DpV3AuvvQ-30" value="&lt;ul style=&quot;font-size: 16px;&quot;&gt;&lt;li style=&quot;font-size: 16px;&quot;&gt;&lt;li style=&quot;font-size: 16px;&quot;&gt;&lt;br&gt;&lt;/li&gt;&lt;li style=&quot;font-size: 16px;&quot;&gt;不同（N） =&amp;gt; NAT 之内&lt;/li&gt;&lt;li style=&quot;font-size: 16px;&quot;&gt;相等（Y） =&amp;gt; Open Internet | Sym UDP Firewall）&amp;nbsp;&amp;nbsp;&lt;/li&gt;&lt;/li&gt;&lt;/ul&gt;" style="text;strokeColor=default;fillColor=#FFFFEE;html=1;whiteSpace=wrap;verticalAlign=middle;overflow=hidden;fontSize=16;labelBackgroundColor=none;labelBorderColor=none;textShadow=1;rounded=0;spacingTop=9;fontStyle=2;gradientColor=none;glass=0;shadow=1;" parent="1" vertex="1">
          <mxGeometry x="-62" y="590" width="412" height="104" as="geometry" />
        </mxCell>
        <mxCell id="p-p-h4AZu70DpV3AuvvQ-32" value="&lt;ul style=&quot;font-size: 16px;&quot;&gt;&lt;li style=&quot;font-size: 16px;&quot;&gt;&lt;li style=&quot;font-size: 16px;&quot;&gt;收到 =&amp;gt; UDP 链路正常&lt;/li&gt;&lt;li style=&quot;font-size: 16px;&quot;&gt;未收到 =&amp;gt; UDP 阻塞防火墙&amp;nbsp; &amp;nbsp; &amp;nbsp; &amp;nbsp;&lt;/li&gt;&lt;/li&gt;&lt;/ul&gt;" style="text;strokeColor=default;fillColor=#FFFFEE;html=1;whiteSpace=wrap;verticalAlign=middle;overflow=hidden;fontFamily=Helvetica;fontSize=16;fontColor=default;labelBorderColor=none;labelBackgroundColor=none;fontStyle=2;textShadow=1;strokeWidth=1;shadow=1;" parent="1" vertex="1">
          <mxGeometry x="391" y="619" width="250" height="74" as="geometry" />
        </mxCell>
        <mxCell id="p-p-h4AZu70DpV3AuvvQ-33" value="&lt;ul style=&quot;font-size: 16px;&quot;&gt;&lt;li style=&quot;font-size: 16px;&quot;&gt;收到 =&amp;gt; RC 类型&lt;/li&gt;&lt;li style=&quot;font-size: 16px;&quot;&gt;未收到 =&amp;gt; P-RC | Sym 类型&amp;nbsp; &amp;nbsp; &amp;nbsp; &amp;nbsp;&lt;/li&gt;&lt;/ul&gt;" style="text;html=1;whiteSpace=wrap;verticalAlign=middle;overflow=hidden;fontFamily=Helvetica;fontSize=16;labelBorderColor=none;labelBackgroundColor=none;fontStyle=2;textShadow=1;fillColor=#FFFFEE;gradientColor=none;strokeColor=default;shadow=1;" parent="1" vertex="1">
          <mxGeometry x="699" y="618" width="250" height="74" as="geometry" />
        </mxCell>
        <mxCell id="p-p-h4AZu70DpV3AuvvQ-34" value="&lt;ul style=&quot;font-size: 16px;&quot;&gt;&lt;li style=&quot;font-size: 16px;&quot;&gt;&lt;li style=&quot;font-size: 16px;&quot;&gt;收到 &amp;amp; 1.N&amp;nbsp; &amp;nbsp;=&amp;gt; FullC 类型&lt;/li&gt;&lt;li style=&quot;font-size: 16px;&quot;&gt;收到 &amp;amp; 1.Y&amp;nbsp; &amp;nbsp;=&amp;gt; 公网之上（Open Internet）&lt;/li&gt;&lt;li style=&quot;font-size: 16px;&quot;&gt;未收到 &amp;amp; 1.Y =&amp;gt; Sym UDP Firewall&lt;/li&gt;&lt;li style=&quot;font-size: 16px;&quot;&gt;未收到 &amp;amp; 1.N =&amp;gt; P-RC | Sym 类型（也含RC，但前面已判断）&amp;nbsp; &amp;nbsp;&lt;/li&gt;&lt;/li&gt;&lt;/ul&gt;" style="text;strokeColor=default;fillColor=#FFFFEE;html=1;whiteSpace=wrap;verticalAlign=middle;overflow=hidden;fontFamily=Helvetica;fontSize=16;fontColor=default;labelBorderColor=none;labelBackgroundColor=none;fontStyle=2;textShadow=1;spacingBottom=0;spacingTop=2;shadow=1;" parent="1" vertex="1">
          <mxGeometry x="990" y="580" width="490" height="112" as="geometry" />
        </mxCell>
        <mxCell id="p-p-h4AZu70DpV3AuvvQ-35" value="STUN:Sym" style="text;strokeColor=none;fillColor=none;html=1;fontSize=24;fontStyle=1;verticalAlign=middle;align=center;textShadow=1;" parent="1" vertex="1">
          <mxGeometry x="614" y="840" width="180" height="40" as="geometry" />
        </mxCell>
        <mxCell id="p-p-h4AZu70DpV3AuvvQ-36" value="" style="endArrow=classic;html=1;rounded=0;entryX=0.138;entryY=-0.008;entryDx=0;entryDy=0;entryPerimeter=0;exitX=0.142;exitY=1.025;exitDx=0;exitDy=0;exitPerimeter=0;strokeWidth=2;" parent="1" edge="1">
          <mxGeometry width="50" height="50" relative="1" as="geometry">
            <mxPoint x="9.439999999999891" y="977" as="sourcePoint" />
            <mxPoint x="8.000000000000064" y="1045.68" as="targetPoint" />
          </mxGeometry>
        </mxCell>
        <mxCell id="p-p-h4AZu70DpV3AuvvQ-38" value="" style="endArrow=classic;html=1;rounded=0;entryX=0.138;entryY=-0.008;entryDx=0;entryDy=0;entryPerimeter=0;exitX=0.142;exitY=1.025;exitDx=0;exitDy=0;exitPerimeter=0;strokeWidth=2;" parent="1" edge="1">
          <mxGeometry width="50" height="50" relative="1" as="geometry">
            <mxPoint x="375.00000000000006" y="1045.3400000000001" as="sourcePoint" />
            <mxPoint x="376.4399999999999" y="976.66" as="targetPoint" />
          </mxGeometry>
        </mxCell>
        <mxCell id="p-p-h4AZu70DpV3AuvvQ-40" value="" style="endArrow=classic;html=1;rounded=0;exitX=0.142;exitY=1.025;exitDx=0;exitDy=0;exitPerimeter=0;strokeWidth=2;" parent="1" edge="1">
          <mxGeometry width="50" height="50" relative="1" as="geometry">
            <mxPoint x="22.439999999999884" y="1249.32" as="sourcePoint" />
            <mxPoint x="21" y="1343" as="targetPoint" />
          </mxGeometry>
        </mxCell>
        <mxCell id="p-p-h4AZu70DpV3AuvvQ-41" value="&lt;span style=&quot;color: rgb(0, 0, 0); font-size: 15px; font-style: normal; font-variant-ligatures: normal; font-variant-caps: normal; font-weight: 400; letter-spacing: normal; orphans: 2; text-indent: 0px; text-transform: none; widows: 2; word-spacing: 0px; -webkit-text-stroke-width: 0px; white-space: nowrap; text-decoration-thickness: initial; text-decoration-style: initial; text-decoration-color: initial; float: none; display: inline !important;&quot;&gt;Client&#39;s UDP {&lt;/span&gt;&lt;span style=&quot;font-size: 15px; font-style: normal; font-variant-ligatures: normal; font-variant-caps: normal; font-weight: 400; letter-spacing: normal; orphans: 2; text-indent: 0px; text-transform: none; widows: 2; word-spacing: 0px; -webkit-text-stroke-width: 0px; white-space: nowrap; text-decoration-thickness: initial; text-decoration-style: initial; text-decoration-color: initial; float: none; display: inline !important;&quot;&gt;&lt;font color=&quot;#ff0000&quot; style=&quot;font-size: 15px;&quot;&gt;IP:Port&lt;/font&gt;&lt;/span&gt;&lt;span style=&quot;color: rgb(0, 0, 0); font-size: 15px; font-style: normal; font-variant-ligatures: normal; font-variant-caps: normal; font-weight: 400; letter-spacing: normal; orphans: 2; text-indent: 0px; text-transform: none; widows: 2; word-spacing: 0px; -webkit-text-stroke-width: 0px; white-space: nowrap; text-decoration-thickness: initial; text-decoration-style: initial; text-decoration-color: initial; float: none; display: inline !important;&quot;&gt;}&lt;/span&gt;" style="text;whiteSpace=wrap;html=1;fontSize=15;align=center;textShadow=0;labelBorderColor=none;labelBackgroundColor=none;fontFamily=Comic Sans MS;" parent="1" vertex="1">
          <mxGeometry x="24" y="1283" width="164" height="30" as="geometry" />
        </mxCell>
        <mxCell id="p-p-h4AZu70DpV3AuvvQ-44" value="&lt;span style=&quot;text-wrap: nowrap; font-size: 20px;&quot;&gt;Server: TCP {&lt;font color=&quot;#00cc00&quot;&gt;IP&lt;/font&gt;}&lt;/span&gt;&lt;span style=&quot;font-size: 20px; white-space: pre;&quot;&gt;&#x9;&lt;/span&gt;&lt;span style=&quot;font-size: 20px; white-space: pre;&quot;&gt;&#x9;&lt;span style=&quot;white-space: pre;&quot;&gt;&#x9;&#x9;&#x9;&lt;/span&gt; &lt;/span&gt;&amp;nbsp; &amp;nbsp;&lt;span style=&quot;white-space: pre;&quot;&gt;&#x9;&lt;/span&gt;&lt;span style=&quot;white-space: pre;&quot;&gt;&#x9;&lt;/span&gt;&lt;span style=&quot;text-wrap: nowrap; font-size: 20px;&quot;&gt;UDP Listen {&lt;/span&gt;&lt;font style=&quot;text-wrap: nowrap; font-size: 20px;&quot; color=&quot;#00cc00&quot;&gt;Port&lt;/font&gt;&lt;span style=&quot;text-wrap: nowrap; font-size: 20px;&quot;&gt;}&lt;/span&gt;" style="rounded=1;whiteSpace=wrap;html=1;align=left;labelBorderColor=none;textShadow=1;spacingTop=0;spacingLeft=14;fillColor=#f5f5f5;fontColor=#333333;strokeColor=#666666;fontFamily=Georgia;" parent="1" vertex="1">
          <mxGeometry x="-60" y="910" width="630" height="60" as="geometry" />
        </mxCell>
        <mxCell id="p-p-h4AZu70DpV3AuvvQ-45" value="&lt;span style=&quot;font-size: 20px; text-wrap: nowrap;&quot;&gt;Client: TCP&amp;nbsp;&amp;nbsp;&lt;/span&gt;&lt;span style=&quot;font-size: 20px; white-space: pre;&quot;&gt;&#x9;&lt;/span&gt;&lt;span style=&quot;font-size: 20px; white-space: pre;&quot;&gt;&#x9;&lt;span style=&quot;white-space: pre;&quot;&gt;&#x9;&#x9;&#x9;&#x9;&lt;/span&gt; &lt;/span&gt;&lt;span style=&quot;font-size: 20px; text-wrap: nowrap;&quot;&gt;&amp;nbsp; &lt;span style=&quot;white-space: pre;&quot;&gt;&#x9;&lt;/span&gt;UDP {&lt;/span&gt;&lt;font color=&quot;#ff0000&quot; style=&quot;font-size: 20px; text-wrap: nowrap;&quot;&gt;IP:Port&lt;/font&gt;&lt;span style=&quot;font-size: 20px; text-wrap: nowrap;&quot;&gt;}&lt;/span&gt;" style="rounded=1;whiteSpace=wrap;html=1;align=left;labelBorderColor=none;textShadow=1;spacingTop=0;spacingLeft=14;fillColor=#f5f5f5;fontColor=#333333;strokeColor=#666666;fontFamily=Georgia;" parent="1" vertex="1">
          <mxGeometry x="-60" y="1050" width="630" height="60" as="geometry" />
        </mxCell>
        <mxCell id="p-p-h4AZu70DpV3AuvvQ-46" value="&lt;span style=&quot;font-size: 20px; text-wrap: nowrap;&quot;&gt;Server:&amp;nbsp;&amp;nbsp;&lt;/span&gt;&lt;span style=&quot;font-size: 20px; text-wrap: nowrap;&quot;&gt;TCP&amp;nbsp;&lt;/span&gt;" style="rounded=1;whiteSpace=wrap;html=1;align=left;labelBorderColor=none;textShadow=1;spacingTop=0;spacingLeft=14;fillColor=#f5f5f5;fontColor=#333333;strokeColor=#666666;fontFamily=Georgia;" parent="1" vertex="1">
          <mxGeometry x="-59" y="1183" width="150" height="60" as="geometry" />
        </mxCell>
        <mxCell id="p-p-h4AZu70DpV3AuvvQ-47" value="&lt;span style=&quot;font-size: 20px; text-wrap: nowrap;&quot;&gt;Client:&amp;nbsp; &amp;nbsp;&lt;/span&gt;&lt;span style=&quot;font-size: 20px; text-wrap: nowrap;&quot;&gt;TCP&lt;/span&gt;" style="rounded=1;whiteSpace=wrap;html=1;align=left;labelBorderColor=none;textShadow=1;spacingTop=0;spacingLeft=14;fillColor=#f5f5f5;fontColor=#333333;strokeColor=#666666;fontFamily=Georgia;" parent="1" vertex="1">
          <mxGeometry x="-59" y="1348" width="150" height="60" as="geometry" />
        </mxCell>
        <mxCell id="p-p-h4AZu70DpV3AuvvQ-52" value="&lt;ul style=&quot;font-size: 16px;&quot;&gt;&lt;li style=&quot;font-size: 16px;&quot;&gt;相同 =&amp;gt; P-RC&lt;br style=&quot;font-size: 16px;&quot;&gt;&lt;/li&gt;&lt;li style=&quot;font-size: 16px;&quot;&gt;不同 =&amp;gt; Sym&amp;nbsp; &amp;nbsp; &amp;nbsp; &amp;nbsp;&lt;/li&gt;&lt;/ul&gt;" style="text;strokeColor=default;fillColor=#FFFFEE;html=1;whiteSpace=wrap;verticalAlign=middle;overflow=hidden;fontSize=16;labelBackgroundColor=none;labelBorderColor=none;textShadow=1;rounded=0;spacingTop=0;fontStyle=2;shadow=1;" parent="1" vertex="1">
          <mxGeometry x="427" y="1334" width="173" height="74" as="geometry" />
        </mxCell>
        <mxCell id="p-p-h4AZu70DpV3AuvvQ-56" value="与 STUN:Cone 中获得的 {&lt;font style=&quot;font-size: 15px;&quot; color=&quot;#ff0000&quot;&gt;IP:Port&lt;/font&gt;} 对比" style="text;strokeColor=none;fillColor=none;html=1;fontSize=15;fontStyle=2;verticalAlign=middle;align=center;textShadow=0;fontFamily=Verdana;" parent="1" vertex="1">
          <mxGeometry x="110" y="1336" width="300" height="40" as="geometry" />
        </mxCell>
        <mxCell id="p-p-h4AZu70DpV3AuvvQ-57" value="" style="endArrow=classic;html=1;rounded=0;" parent="1" edge="1">
          <mxGeometry width="50" height="50" relative="1" as="geometry">
            <mxPoint x="99" y="1377" as="sourcePoint" />
            <mxPoint x="421" y="1376" as="targetPoint" />
          </mxGeometry>
        </mxCell>
        <mxCell id="s50DaolHxvZP-Ag0vOTy-2" value="&lt;span style=&quot;color: rgb(0, 0, 0); font-size: 15px; font-variant-ligatures: normal; font-variant-caps: normal; font-weight: 400; letter-spacing: normal; orphans: 2; text-indent: 0px; text-transform: none; widows: 2; word-spacing: 0px; -webkit-text-stroke-width: 0px; white-space: nowrap; text-decoration-thickness: initial; text-decoration-style: initial; text-decoration-color: initial; float: none; display: inline !important;&quot;&gt;Dial {&lt;/span&gt;&lt;span style=&quot;font-size: 15px; font-variant-ligatures: normal; font-variant-caps: normal; font-weight: 400; letter-spacing: normal; orphans: 2; text-indent: 0px; text-transform: none; widows: 2; word-spacing: 0px; -webkit-text-stroke-width: 0px; white-space: nowrap; text-decoration-thickness: initial; text-decoration-style: initial; text-decoration-color: initial; float: none; display: inline !important;&quot;&gt;&lt;font color=&quot;#00cc00&quot; style=&quot;font-size: 15px;&quot;&gt;IP:Port&lt;/font&gt;&lt;/span&gt;&lt;span style=&quot;color: rgb(0, 0, 0); font-size: 15px; font-variant-ligatures: normal; font-variant-caps: normal; font-weight: 400; letter-spacing: normal; orphans: 2; text-indent: 0px; text-transform: none; widows: 2; word-spacing: 0px; -webkit-text-stroke-width: 0px; white-space: nowrap; text-decoration-thickness: initial; text-decoration-style: initial; text-decoration-color: initial; float: none; display: inline !important;&quot;&gt;}, &lt;/span&gt;&lt;span style=&quot;font-size: 15px; font-variant-ligatures: normal; font-variant-caps: normal; font-weight: 400; letter-spacing: normal; orphans: 2; text-indent: 0px; text-transform: none; widows: 2; word-spacing: 0px; -webkit-text-stroke-width: 0px; white-space: nowrap; text-decoration-thickness: initial; text-decoration-style: initial; text-decoration-color: initial; float: none; display: inline !important;&quot;&gt;&lt;span style=&quot;&quot;&gt;&lt;font color=&quot;#0000ff&quot;&gt;SN&lt;/font&gt;&lt;/span&gt;&lt;/span&gt;" style="text;whiteSpace=wrap;html=1;fontSize=15;align=center;labelBorderColor=none;textShadow=0;labelBackgroundColor=none;fontStyle=0;fontFamily=Comic Sans MS;" parent="1" vertex="1">
          <mxGeometry x="376" y="997" width="134" height="30" as="geometry" />
        </mxCell>
        <mxCell id="rpdCVBlcd7Zm47px1E03-2" value="1." style="text;html=1;align=center;verticalAlign=middle;whiteSpace=wrap;rounded=1;fontSize=16;fontStyle=1;strokeColor=default;fillColor=#FFFFEE;shadow=0;" parent="1" vertex="1">
          <mxGeometry x="-50" y="569" width="32" height="30" as="geometry" />
        </mxCell>
        <mxCell id="rpdCVBlcd7Zm47px1E03-3" value="2." style="text;html=1;align=center;verticalAlign=middle;whiteSpace=wrap;rounded=1;fontSize=16;fontStyle=1;strokeColor=default;fillColor=#FFFFEE;shadow=0;" parent="1" vertex="1">
          <mxGeometry x="400" y="577" width="32" height="30" as="geometry" />
        </mxCell>
        <mxCell id="rpdCVBlcd7Zm47px1E03-4" value="3." style="text;html=1;align=center;verticalAlign=middle;whiteSpace=wrap;rounded=1;fontSize=16;fontStyle=1;strokeColor=default;fillColor=#FFFFEE;shadow=0;" parent="1" vertex="1">
          <mxGeometry x="708" y="577" width="32" height="30" as="geometry" />
        </mxCell>
        <mxCell id="rpdCVBlcd7Zm47px1E03-5" value="4." style="text;html=1;align=center;verticalAlign=middle;whiteSpace=wrap;rounded=1;fontSize=16;fontStyle=1;strokeColor=default;fillColor=#FFFFEE;shadow=0;" parent="1" vertex="1">
          <mxGeometry x="1428" y="569" width="32" height="30" as="geometry" />
        </mxCell>
        <mxCell id="rpdCVBlcd7Zm47px1E03-6" value="5." style="text;html=1;align=center;verticalAlign=middle;whiteSpace=wrap;rounded=1;fontSize=16;fontStyle=1;strokeColor=default;fillColor=#FFFFEE;shadow=0;" parent="1" vertex="1">
          <mxGeometry x="435" y="1293" width="32" height="30" as="geometry" />
        </mxCell>
        <mxCell id="rpdCVBlcd7Zm47px1E03-7" value="== LocalAddr ?" style="text;html=1;align=left;verticalAlign=middle;whiteSpace=wrap;rounded=0;fontSize=16;fillColor=#FFFFEE;fontStyle=3;spacing=0;spacingLeft=5;fontColor=#0000CC;" parent="1" vertex="1">
          <mxGeometry x="-40" y="602" width="133" height="33" as="geometry" />
        </mxCell>
        <mxCell id="HFfON2TJSfJMkOemobaK-1" value="&lt;i style=&quot;font-size: 14px; text-wrap: nowrap;&quot;&gt;（已加密）&lt;/i&gt;" style="text;html=1;align=center;verticalAlign=middle;whiteSpace=wrap;rounded=0;fontSize=14;fontColor=#009900;textShadow=0;" parent="1" vertex="1">
          <mxGeometry x="479" y="163" width="74" height="30" as="geometry" />
        </mxCell>
        <mxCell id="HFfON2TJSfJMkOemobaK-2" value="&lt;i style=&quot;font-size: 14px; text-wrap: nowrap;&quot;&gt;（已加密）&lt;/i&gt;" style="text;html=1;align=center;verticalAlign=middle;whiteSpace=wrap;rounded=0;fontSize=14;fontColor=#009900;textShadow=0;fontFamily=Comic Sans MS;" parent="1" vertex="1">
          <mxGeometry x="495" y="1003" width="78" height="30" as="geometry" />
        </mxCell>
        <mxCell id="HFfON2TJSfJMkOemobaK-3" value="&lt;i style=&quot;font-size: 14px; text-wrap: nowrap;&quot;&gt;（明文&lt;/i&gt;&lt;i style=&quot;background-color: initial; text-wrap: nowrap;&quot;&gt;）&lt;/i&gt;" style="text;html=1;align=center;verticalAlign=middle;whiteSpace=wrap;rounded=0;fontSize=14;fontColor=#FF0000;fontFamily=Comic Sans MS;" parent="1" vertex="1">
          <mxGeometry x="465" y="441" width="55" height="30" as="geometry" />
        </mxCell>
        <mxCell id="HFfON2TJSfJMkOemobaK-5" value="&lt;i style=&quot;font-size: 14px; text-wrap: nowrap;&quot;&gt;（明文&lt;/i&gt;&lt;i style=&quot;background-color: initial; text-wrap: nowrap;&quot;&gt;）&lt;/i&gt;" style="text;html=1;align=center;verticalAlign=middle;whiteSpace=wrap;rounded=0;fontSize=14;fontColor=#FF0000;fontFamily=Comic Sans MS;" parent="1" vertex="1">
          <mxGeometry x="791" y="442" width="59" height="30" as="geometry" />
        </mxCell>
        <mxCell id="HFfON2TJSfJMkOemobaK-6" value="&lt;i style=&quot;font-size: 14px; text-wrap: nowrap;&quot;&gt;（明文&lt;/i&gt;&lt;i style=&quot;background-color: initial; text-wrap: nowrap;&quot;&gt;）&lt;/i&gt;" style="text;html=1;align=center;verticalAlign=middle;whiteSpace=wrap;rounded=0;fontSize=14;fontColor=#FF0000;fontFamily=Comic Sans MS;" parent="1" vertex="1">
          <mxGeometry x="1119" y="444" width="51" height="30" as="geometry" />
        </mxCell>
        <mxCell id="HFfON2TJSfJMkOemobaK-12" value="&lt;b style=&quot;font-size: 17px;&quot;&gt;&lt;font color=&quot;#009900&quot; style=&quot;font-size: 17px;&quot;&gt;注：&lt;/font&gt;&lt;/b&gt;TCP 为安全链路" style="text;html=1;align=center;verticalAlign=middle;whiteSpace=wrap;rounded=0;fontSize=17;fontStyle=0" parent="1" vertex="1">
          <mxGeometry x="1200" y="904" width="200" height="30" as="geometry" />
        </mxCell>
        <mxCell id="HFfON2TJSfJMkOemobaK-13" value="&lt;b style=&quot;font-size: 17px;&quot;&gt;&lt;font color=&quot;#009900&quot; style=&quot;font-size: 17px;&quot;&gt;注：&lt;/font&gt;&lt;/b&gt;TCP 为安全链路" style="text;html=1;align=center;verticalAlign=middle;whiteSpace=wrap;rounded=0;fontSize=17;fontStyle=0" parent="1" vertex="1">
          <mxGeometry x="1200" y="63" width="190" height="30" as="geometry" />
        </mxCell>
        <mxCell id="HFfON2TJSfJMkOemobaK-32" value="STUN:Live" style="text;strokeColor=none;fillColor=none;html=1;fontSize=24;fontStyle=1;verticalAlign=middle;align=center;textShadow=1;" parent="1" vertex="1">
          <mxGeometry x="614" y="1560" width="180" height="40" as="geometry" />
        </mxCell>
        <mxCell id="HFfON2TJSfJMkOemobaK-33" value="" style="endArrow=classic;html=1;rounded=0;exitX=0.142;exitY=1.025;exitDx=0;exitDy=0;exitPerimeter=0;strokeWidth=2;" parent="1" edge="1">
          <mxGeometry width="50" height="50" relative="1" as="geometry">
            <mxPoint x="12.439999999999891" y="1697" as="sourcePoint" />
            <mxPoint x="13" y="1830" as="targetPoint" />
          </mxGeometry>
        </mxCell>
        <mxCell id="HFfON2TJSfJMkOemobaK-34" value="" style="endArrow=classic;html=1;rounded=0;entryX=0.138;entryY=-0.008;entryDx=0;entryDy=0;entryPerimeter=0;strokeWidth=1;dashed=1;" parent="1" edge="1">
          <mxGeometry width="50" height="50" relative="1" as="geometry">
            <mxPoint x="532" y="1830" as="sourcePoint" />
            <mxPoint x="532.4399999999998" y="1696.6599999999999" as="targetPoint" />
          </mxGeometry>
        </mxCell>
        <mxCell id="HFfON2TJSfJMkOemobaK-38" value="&lt;span style=&quot;font-size: 20px; text-wrap: nowrap;&quot;&gt;Server: TCP {&lt;font color=&quot;#00cc00&quot;&gt;IP&lt;/font&gt;}&lt;/span&gt;&lt;span style=&quot;font-size: 20px; white-space: pre;&quot;&gt;&#x9;&lt;/span&gt;&lt;span style=&quot;font-size: 20px; white-space: pre;&quot;&gt;&#x9;&lt;span style=&quot;white-space: pre;&quot;&gt;&#x9;&lt;span style=&quot;white-space: pre;&quot;&gt;&#x9;&lt;/span&gt;&lt;/span&gt;……… UDP ………&lt;span style=&quot;white-space: pre;&quot;&gt;&#x9;&lt;span style=&quot;white-space: pre;&quot;&gt;&lt;span style=&quot;white-space: pre;&quot;&gt;&#x9;&lt;span style=&quot;white-space: pre;&quot;&gt;&#x9;&lt;/span&gt;&lt;span style=&quot;white-space: pre;&quot;&gt;&#x9;&lt;/span&gt;&lt;/span&gt;&lt;/span&gt;&lt;/span&gt;&lt;/span&gt;&lt;span style=&quot;font-size: 20px; text-wrap: nowrap;&quot;&gt;UDP Listen {&lt;/span&gt;&lt;font style=&quot;font-size: 20px; text-wrap: nowrap;&quot; color=&quot;#00cc00&quot;&gt;Port&lt;/font&gt;&lt;span style=&quot;font-size: 20px; text-wrap: nowrap;&quot;&gt;}&lt;span style=&quot;white-space: pre;&quot;&gt;&#x9;&lt;/span&gt;&lt;span style=&quot;white-space: pre;&quot;&gt;&#x9;&lt;/span&gt;&lt;span style=&quot;white-space: pre;&quot;&gt;&#x9;&lt;span style=&quot;white-space: pre;&quot;&gt;&#x9;&lt;/span&gt;&lt;/span&gt;UDP Listen {&lt;font color=&quot;#00cc00&quot;&gt;Port&lt;/font&gt;}&lt;/span&gt;" style="rounded=1;whiteSpace=wrap;html=1;align=left;labelBorderColor=none;textShadow=1;spacingTop=0;spacingLeft=14;fillColor=#f5f5f5;fontColor=#333333;strokeColor=#666666;fontFamily=Georgia;" parent="1" vertex="1">
          <mxGeometry x="-60" y="1630" width="1170" height="60" as="geometry" />
        </mxCell>
        <mxCell id="HFfON2TJSfJMkOemobaK-39" value="&lt;span style=&quot;font-size: 20px; text-wrap: nowrap;&quot;&gt;Client: TCP&amp;nbsp;&amp;nbsp;&lt;/span&gt;&lt;span style=&quot;font-size: 20px; white-space: pre;&quot;&gt;&#x9;&lt;/span&gt;&lt;span style=&quot;font-size: 20px; white-space: pre;&quot;&gt;&#x9;&lt;span style=&quot;white-space: pre;&quot;&gt;&#x9;&#x9;&lt;span style=&quot;white-space: pre;&quot;&gt;&#x9;&lt;/span&gt;&lt;/span&gt;………&lt;/span&gt;&lt;font style=&quot;font-size: 20px;&quot;&gt;&amp;nbsp;&lt;/font&gt;&lt;span style=&quot;font-size: 20px; text-wrap: nowrap;&quot;&gt;UDP ………&lt;/span&gt;&lt;span style=&quot;font-size: 20px; white-space: pre;&quot;&gt; &lt;span style=&quot;white-space: pre;&quot;&gt;&#x9;&lt;span style=&quot;white-space: pre;&quot;&gt;&#x9;&lt;/span&gt;&lt;span style=&quot;white-space: pre;&quot;&gt;&#x9;&lt;/span&gt;&lt;/span&gt;&lt;/span&gt;&lt;span style=&quot;font-size: 20px; text-wrap: nowrap;&quot;&gt;UDP New{&lt;/span&gt;&lt;font color=&quot;#ff0000&quot; style=&quot;font-size: 20px; text-wrap: nowrap;&quot;&gt;Port&lt;/font&gt;&lt;span style=&quot;font-size: 20px; text-wrap: nowrap;&quot;&gt;}&amp;nbsp;&lt;span style=&quot;white-space: pre;&quot;&gt;&#x9;&lt;/span&gt;&lt;span style=&quot;white-space: pre;&quot;&gt;&#x9;&lt;/span&gt;&lt;span style=&quot;white-space: pre;&quot;&gt;&#x9;&lt;/span&gt;&lt;span style=&quot;white-space: pre;&quot;&gt;&#x9;&lt;span style=&quot;white-space: pre;&quot;&gt;&#x9;&lt;/span&gt;&lt;/span&gt;UDP Listen {&lt;font color=&quot;#ff0000&quot;&gt;New&lt;/font&gt;, &lt;font color=&quot;#009900&quot;&gt;Old&lt;/font&gt;}&amp;nbsp;&lt;/span&gt;" style="rounded=1;whiteSpace=wrap;html=1;align=left;labelBorderColor=none;textShadow=1;spacingTop=0;spacingLeft=14;fillColor=#f5f5f5;fontColor=#333333;strokeColor=#666666;fontFamily=Georgia;" parent="1" vertex="1">
          <mxGeometry x="-60" y="1840" width="1170" height="60" as="geometry" />
        </mxCell>
        <mxCell id="HFfON2TJSfJMkOemobaK-45" value="UDP Listen&#39;s {&lt;font color=&quot;#00cc00&quot; style=&quot;font-size: 15px;&quot;&gt;Port&lt;/font&gt;}&lt;div style=&quot;text-align: left;&quot;&gt;Random {&lt;font color=&quot;#0000ff&quot; style=&quot;font-size: 15px;&quot;&gt;SN&lt;/font&gt;}&lt;/div&gt;&lt;div style=&quot;text-align: left;&quot;&gt;{&lt;span style=&quot;background-color: initial;&quot;&gt;&lt;font color=&quot;#00cc00&quot;&gt;Key&lt;/font&gt;}&lt;/span&gt;&lt;/div&gt;" style="text;html=1;fontSize=15;fontStyle=0;verticalAlign=middle;align=center;fontColor=#000000;textShadow=0;labelBorderColor=none;whiteSpace=wrap;fontFamily=Comic Sans MS;" parent="1" vertex="1">
          <mxGeometry x="13" y="1726" width="156" height="71" as="geometry" />
        </mxCell>
        <mxCell id="HFfON2TJSfJMkOemobaK-46" value="&lt;div&gt;&lt;span style=&quot;background-color: initial; text-wrap-mode: nowrap;&quot;&gt;&lt;font color=&quot;#0000ff&quot;&gt;Count:SN + &lt;/font&gt;&lt;font color=&quot;#009900&quot;&gt;old-&lt;/font&gt;&lt;/span&gt;&lt;font style=&quot;background-color: initial; text-wrap-mode: nowrap;&quot; color=&quot;#009900&quot;&gt;&lt;i&gt;Port&lt;/i&gt;&lt;/font&gt;&lt;/div&gt;" style="text;whiteSpace=wrap;html=1;fontSize=15;align=left;labelBorderColor=none;textShadow=0;labelBackgroundColor=none;fontStyle=0;fontFamily=Comic Sans MS;spacingBottom=0;" parent="1" vertex="1">
          <mxGeometry x="582" y="1742.75" width="168" height="34.25" as="geometry" />
        </mxCell>
        <mxCell id="HFfON2TJSfJMkOemobaK-49" value="&lt;b style=&quot;font-size: 17px;&quot;&gt;&lt;font color=&quot;#009900&quot; style=&quot;font-size: 17px;&quot;&gt;注：&lt;/font&gt;&lt;/b&gt;TCP 为安全链路" style="text;html=1;align=center;verticalAlign=middle;whiteSpace=wrap;rounded=0;fontSize=17;fontStyle=0" parent="1" vertex="1">
          <mxGeometry x="1200" y="1624" width="200" height="30" as="geometry" />
        </mxCell>
        <mxCell id="HFfON2TJSfJMkOemobaK-51" value="" style="endArrow=classic;html=1;rounded=0;entryX=0.138;entryY=-0.008;entryDx=0;entryDy=0;entryPerimeter=0;strokeWidth=1;dashed=1;" parent="1" edge="1">
          <mxGeometry width="50" height="50" relative="1" as="geometry">
            <mxPoint x="552" y="1830" as="sourcePoint" />
            <mxPoint x="552.4399999999998" y="1696.6599999999999" as="targetPoint" />
          </mxGeometry>
        </mxCell>
        <mxCell id="HFfON2TJSfJMkOemobaK-52" value="" style="endArrow=classic;html=1;rounded=0;entryX=0.138;entryY=-0.008;entryDx=0;entryDy=0;entryPerimeter=0;strokeWidth=1;dashed=1;" parent="1" edge="1">
          <mxGeometry width="50" height="50" relative="1" as="geometry">
            <mxPoint x="572" y="1830" as="sourcePoint" />
            <mxPoint x="572.4399999999998" y="1696.6599999999999" as="targetPoint" />
          </mxGeometry>
        </mxCell>
        <mxCell id="HFfON2TJSfJMkOemobaK-53" value="" style="endArrow=classic;html=1;rounded=0;entryX=0.138;entryY=-0.008;entryDx=0;entryDy=0;entryPerimeter=0;strokeWidth=1;dashed=1;" parent="1" edge="1">
          <mxGeometry width="50" height="50" relative="1" as="geometry">
            <mxPoint x="843.4399999999998" y="1696.6599999999999" as="sourcePoint" />
            <mxPoint x="843" y="1830" as="targetPoint" />
          </mxGeometry>
        </mxCell>
        <mxCell id="HFfON2TJSfJMkOemobaK-54" value="" style="endArrow=classic;html=1;rounded=0;entryX=0.138;entryY=-0.008;entryDx=0;entryDy=0;entryPerimeter=0;strokeWidth=1;dashed=1;" parent="1" edge="1">
          <mxGeometry width="50" height="50" relative="1" as="geometry">
            <mxPoint x="863.4399999999998" y="1696.6599999999999" as="sourcePoint" />
            <mxPoint x="863" y="1830" as="targetPoint" />
          </mxGeometry>
        </mxCell>
        <mxCell id="HFfON2TJSfJMkOemobaK-55" value="" style="endArrow=classic;html=1;rounded=0;entryX=0.138;entryY=-0.008;entryDx=0;entryDy=0;entryPerimeter=0;strokeWidth=1;dashed=1;" parent="1" edge="1">
          <mxGeometry width="50" height="50" relative="1" as="geometry">
            <mxPoint x="883.4399999999998" y="1696.6599999999999" as="sourcePoint" />
            <mxPoint x="883" y="1830" as="targetPoint" />
          </mxGeometry>
        </mxCell>
        <mxCell id="HFfON2TJSfJMkOemobaK-56" value="&lt;div&gt;&lt;span style=&quot;text-wrap: nowrap;&quot;&gt;&lt;b&gt;Reply&lt;/b&gt;&lt;font color=&quot;#0000ff&quot;&gt;&amp;nbsp;=&amp;gt;&amp;nbsp;&lt;/font&gt;&lt;i style=&quot;&quot;&gt;&lt;font color=&quot;#009900&quot;&gt;old-Port&lt;/font&gt;&lt;/i&gt;&lt;/span&gt;&lt;/div&gt;&lt;div&gt;&lt;span style=&quot;color: rgb(0, 0, 255); text-wrap-mode: nowrap; background-color: initial;&quot;&gt;&lt;font style=&quot;font-size: 14px;&quot;&gt;&amp;nbsp;&lt;/font&gt;&lt;/span&gt;&lt;/div&gt;&lt;div&gt;&lt;span style=&quot;color: rgb(0, 0, 255); text-wrap-mode: nowrap; background-color: initial;&quot;&gt;Count:SN&lt;/span&gt;&lt;/div&gt;" style="text;whiteSpace=wrap;html=1;fontSize=15;align=left;labelBorderColor=none;textShadow=0;labelBackgroundColor=none;fontStyle=0;fontFamily=Comic Sans MS;" parent="1" vertex="1">
          <mxGeometry x="892" y="1724.75" width="161" height="75.25" as="geometry" />
        </mxCell>
        <mxCell id="8_39TlMeP1Y8HxdWjAfV-1" value="UDP Listen&#39;s {&lt;font color=&quot;#00cc00&quot; style=&quot;font-size: 15px;&quot;&gt;Port&lt;/font&gt;}, Random {&lt;font color=&quot;#0000ff&quot; style=&quot;font-size: 15px;&quot;&gt;SN&lt;/font&gt;},&amp;nbsp;&lt;span style=&quot;background-color: initial;&quot;&gt;{&lt;font color=&quot;#00cc00&quot;&gt;Key&lt;/font&gt;}&lt;/span&gt;" style="text;html=1;fontSize=15;fontStyle=0;verticalAlign=middle;align=center;fontColor=#000000;textShadow=0;labelBorderColor=none;whiteSpace=wrap;fontFamily=Comic Sans MS;" parent="1" vertex="1">
          <mxGeometry x="9" y="996" width="293" height="30" as="geometry" />
        </mxCell>
        <mxCell id="NynEl7I9qMtlJGLrZgn9-2" value="" style="endArrow=open;html=1;rounded=0;entryX=0.138;entryY=-0.008;entryDx=0;entryDy=0;entryPerimeter=0;strokeWidth=2;dashed=1;endFill=0;startArrow=open;startFill=0;dashPattern=1 1;strokeColor=#009900;" parent="1" edge="1">
          <mxGeometry width="50" height="50" relative="1" as="geometry">
            <mxPoint x="302.5" y="1832.17" as="sourcePoint" />
            <mxPoint x="302.9399999999999" y="1698.83" as="targetPoint" />
          </mxGeometry>
        </mxCell>
        <mxCell id="Rg1zUbx96-ySRtC6Xp37-1" value="&lt;i style=&quot;font-size: 14px; text-wrap: nowrap;&quot;&gt;（已加密）&lt;/i&gt;" style="text;html=1;align=center;verticalAlign=middle;whiteSpace=wrap;rounded=0;fontSize=14;fontColor=#009900;textShadow=0;fontFamily=Comic Sans MS;" vertex="1" parent="1">
          <mxGeometry x="573" y="1768" width="78" height="30" as="geometry" />
        </mxCell>
        <mxCell id="Rg1zUbx96-ySRtC6Xp37-2" value="&lt;i style=&quot;font-size: 14px; text-wrap: nowrap;&quot;&gt;（明文）&lt;/i&gt;" style="text;html=1;align=center;verticalAlign=middle;whiteSpace=wrap;rounded=0;fontSize=14;fontColor=#FF0000;textShadow=0;fontFamily=Comic Sans MS;" vertex="1" parent="1">
          <mxGeometry x="956" y="1773" width="65" height="30" as="geometry" />
        </mxCell>
      </root>
    </mxGraphModel>
  </diagram>
</mxfile>
